# xmcd
#
# Track frame offsets: 
#        150
#        16916
#        31481
#        46941
#        72381
#        98009
#        119040
#        142311
#        165473
#        186305
#        209489
#        235294
#        257913
#        278308
#        310943
#
# Disc length: 4266 seconds
#
# Revision: 0
# Processed by: cddbd v1.5.2PL0 Copyright (c) Steve Scherf et al.
# Submitted via: ExactAudioCopy v0.99pb5
#
DISCID=dc10a80f
DTITLE=Various Artist - The Very Best of 2009
DYEAR=2009
DGENRE=Indie
TTITLE0=Fuck Buttons - Surf Solar (Edit)
TTITLE1=HEALTH - Die Slow
TTITLE2=Phoenix - Girlfriend
TTITLE3=Andrew Weatherall - Privately Electrified
TTITLE4=Fever Ray - Keep The Streets Empty For Me
TTITLE5=Lusine - Two Dots
TTITLE6=Moderat - Slow Match
TTITLE7=The Dead Weather - Treat Me Like Your Mother (Diplo Remix)
TTITLE8=Crocodiles - I Want To Kill
TTITLE9=YACHT - Psychic City (Voodoo Remix)
TTITLE10=Wild Beasts - Through The Iron Gate
TTITLE11=Hope Sandoval and The Warm Inventions - Blanchard (Radio Edit)
TTITLE12=Woodpigeon - Knock Knock
TTITLE13=Anathallo - The River
TTITLE14=Data
EXTD=
EXTT0=
EXTT1=
EXTT2=
EXTT3=
EXTT4=
EXTT5=
EXTT6=
EXTT7=
EXTT8=
EXTT9=
EXTT10=
EXTT11=
EXTT12=
EXTT13=
EXTT14=
PLAYORDER=
